<?xml version="1.0" standalone="no"?>
<!DOCTYPE svg PUBLIC "-//W3C//DTD SVG 20010904//EN"
 "http://www.w3.org/TR/2001/REC-SVG-20010904/DTD/svg10.dtd">
<svg version="1.0" xmlns="http://www.w3.org/2000/svg"
 width="266.000000pt" height="266.000000pt" viewBox="0 0 266.000000 266.000000"
 preserveAspectRatio="xMidYMid meet">
<metadata>
Created by potrace 1.11, written by Peter Selinger 2001-2013
</metadata>
<g transform="translate(0.000000,266.000000) scale(0.100000,-0.100000)"
fill="#000000" stroke="none">
<path d="M405 1737 c-95 -32 -160 -88 -205 -176 -41 -82 -54 -154 -48 -269 4
-84 10 -109 36 -165 33 -72 84 -127 144 -158 75 -38 268 -40 339 -4 94 49 195
209 144 229 -39 14 -74 -6 -104 -60 -40 -70 -98 -104 -186 -112 -122 -9 -211
50 -253 168 -12 36 -22 80 -22 98 l0 32 295 0 295 0 6 25 c10 40 -14 155 -47
222 -36 74 -88 129 -149 156 -56 26 -187 33 -245 14z m193 -93 c75 -31 128
-106 139 -195 l6 -49 -247 0 c-231 0 -247 1 -242 18 2 9 10 36 17 59 17 60 77
134 129 161 53 27 142 30 198 6z"/>
<path d="M1190 1729 c-76 -30 -158 -115 -189 -194 -30 -74 -40 -230 -21 -314
34 -155 140 -258 287 -281 184 -29 323 53 394 232 24 60 29 227 9 313 -21 96
-99 193 -188 236 -68 33 -217 37 -292 8z m261 -96 c90 -49 131 -139 131 -293
0 -107 -14 -156 -62 -224 -40 -55 -97 -87 -168 -93 -112 -10 -197 39 -249 144
-23 49 -28 71 -29 152 -5 186 62 302 194 341 47 13 132 1 183 -27z"/>
<path d="M2085 1741 c-87 -21 -171 -94 -220 -191 -72 -143 -62 -344 24 -479
59 -91 148 -132 289 -132 94 0 139 12 197 51 57 40 80 67 111 134 30 66 25 76
-36 76 -32 0 -37 -5 -68 -60 -43 -78 -96 -111 -192 -118 -61 -4 -76 -1 -125
22 -30 15 -66 42 -79 59 -31 42 -66 139 -66 182 l0 35 301 0 302 0 -6 68 c-9
96 -31 161 -77 228 -46 69 -91 102 -163 121 -55 14 -142 16 -192 4z m164 -88
c87 -28 150 -108 167 -211 l7 -42 -252 0 -251 0 0 24 c0 46 67 160 112 193 78
55 131 64 217 36z"/>
</g>
</svg>
